<svg xmlns="http://www.w3.org/2000/svg" id="b" viewBox="0 0 35.53 35.53"><g id="c"><path d="m17.76,35.53c-2.39,0-4.78,0-7.17,0-5.29,0-9.47-3.46-10.44-8.66-.11-.57-.14-1.16-.14-1.75C0,20.22,0,15.32,0,10.41.02,5.24,3.68.94,8.79.12c.58-.09,1.17-.12,1.75-.12C15.35,0,20.15,0,24.96,0c5.3,0,9.5,3.52,10.43,8.72.1.57.13,1.17.13,1.75,0,4.86.01,9.71,0,14.57,0,5.23-3.6,9.48-8.76,10.35-.59.1-1.2.12-1.8.12-2.4.01-4.81,0-7.21,0Zm-8.87-17.79c-.01,4.9,3.97,8.9,8.85,8.91,4.9.01,8.9-3.97,8.91-8.86.01-4.9-3.96-8.9-8.86-8.91-4.9-.01-8.9,3.96-8.91,8.85ZM29.61,7.39c0-.8-.67-1.47-1.47-1.47-.83,0-1.5.68-1.48,1.51.01.8.69,1.46,1.5,1.45.8,0,1.46-.68,1.46-1.49Z" style="stroke-width:0px;"/><path d="m8.89,17.74c.01-4.89,4.01-8.86,8.91-8.85,4.89,0,8.87,4.01,8.86,8.91-.01,4.89-4.01,8.87-8.91,8.86-4.89-.01-8.86-4.01-8.85-8.91Zm8.91-5.89c-3.27-.01-5.93,2.63-5.95,5.88-.01,3.27,2.62,5.94,5.87,5.96,3.29.02,5.97-2.63,5.97-5.9,0-3.26-2.64-5.93-5.89-5.94Z" style="fill:#fff; stroke-width:0px;"/><path d="m29.61,7.39c0,.8-.66,1.48-1.46,1.49-.8,0-1.48-.65-1.5-1.45-.02-.83.66-1.51,1.48-1.51.8,0,1.47.67,1.47,1.47Z" style="fill:#fff; stroke-width:0px;"/><path d="m17.79,11.84c3.25.01,5.9,2.67,5.89,5.94,0,3.27-2.69,5.92-5.97,5.9-3.25-.02-5.88-2.7-5.87-5.96.01-3.25,2.68-5.89,5.95-5.88Z" style="stroke-width:0px;"/></g></svg>