<svg xmlns="http://www.w3.org/2000/svg" id="b" viewBox="0 0 35.41 35.41"><g id="c"><path d="m32.19,0H3.22C1.44,0,0,1.44,0,3.22v28.97c0,1.78,1.44,3.22,3.22,3.22h28.97c1.78,0,3.22-1.44,3.22-3.22V3.22c0-1.78-1.44-3.22-3.22-3.22ZM11.19,28.97h-4.75v-15.28h4.75v15.28Zm-2.42-17.46c-1.53,0-2.77-1.24-2.77-2.77s1.24-2.77,2.77-2.77,2.77,1.24,2.77,2.77-1.24,2.77-2.77,2.77Zm20.21,17.46h-4.74v-7.43c0-1.77-.03-4.05-2.47-4.05s-2.85,1.93-2.85,3.92v7.56h-4.74v-15.28h4.55v2.09h.06c.63-1.2,2.18-2.47,4.49-2.47,4.81,0,5.7,3.16,5.7,7.28,0,0,0,8.38,0,8.38Z" style="stroke-width:0px;"/></g></svg>